<svg xmlns="http://www.w3.org/2000/svg" width="16.568" height="16" viewBox="0 0 16.568 16">
  <g id="logout" transform="translate(0 -1.66)">
    <g id="Group_43647" data-name="Group 43647" transform="translate(0 1.66)">
      <path id="Path_6355" data-name="Path 6355" d="M10.453,15.718H1.942V3.6h8.512A.342.342,0,0,0,10.8,3.26V2a.342.342,0,0,0-.342-.342H.342A.342.342,0,0,0,0,2V17.318a.342.342,0,0,0,.342.342H10.453a.342.342,0,0,0,.342-.342V16.06A.341.341,0,0,0,10.453,15.718Z" transform="translate(0 -1.66)" fill="#a6ae9b"/>
      <path id="Path_6356" data-name="Path 6356" d="M31.173,24.272l-4.6-4.6a.352.352,0,0,0-.483,0L25,20.763a.342.342,0,0,0,0,.483l2.078,2.078h-9a.342.342,0,0,0-.342.342v1.694a.342.342,0,0,0,.342.342h9L25,27.781a.342.342,0,0,0,0,.483l1.092,1.092a.342.342,0,0,0,.483,0l4.6-4.6a.341.341,0,0,0,0-.483Z" transform="translate(-14.706 -16.513)" fill="#a6ae9b"/>
    </g>
  </g>
</svg>
