<svg xmlns="http://www.w3.org/2000/svg" width="23.325" height="24.7" viewBox="0 0 23.325 24.7">
  <g id="share" transform="translate(138.55 128.35)">
    <path id="Path_3524" data-name="Path 3524" d="M32.129,15.419a4.3,4.3,0,0,0-3.4,1.674L22.137,13.41A4.3,4.3,0,0,0,22.376,12a4.211,4.211,0,0,0-.244-1.42L28.72,6.9a4.286,4.286,0,1,0-.887-2.606,4.189,4.189,0,0,0,.244,1.42L21.494,9.389A4.287,4.287,0,1,0,21.5,14.6l6.588,3.683a4.288,4.288,0,1,0,4.037-2.86Zm0-14.068A2.945,2.945,0,1,1,29.184,4.3,2.948,2.948,0,0,1,32.129,1.35ZM18.1,14.94A2.945,2.945,0,1,1,21.041,12,2.948,2.948,0,0,1,18.1,14.94ZM32.129,22.65A2.945,2.945,0,1,1,35.074,19.7,2.948,2.948,0,0,1,32.129,22.65Z" transform="translate(-152 -128)" fill="#738ebe" stroke="#738ebe" stroke-width="0.7"/>
  </g>
</svg>
